ffmpeg started on 2025-05-12 at 13:34:06
Report written to "D:\Convert\FFMetrics\reports\ssim_report-6.txt"
Log level: 32
Command line:
ffmpeg -hide_banner -nostdin -i "G:\\\xc0\xed\xe8\xec\xe5\\\xce\xed\xe3\xee\xe8\xed\xe3\xe8\\!_35_\xcb\xe5\xf2\xee_2024\\DreamCast\\\xc0\xf2\xf0\xe8 - \xcc\xee\xe8 \xe4\xee\xf0\xee\xe3\xe8\xe5 \xec\xee\xec\xe5\xed\xf2\xfb\\[DC] Atri - My Dear Moments - 03_Telegram_HEVC.mkv" -i "G:\\\xc0\xed\xe8\xec\xe5\\\xce\xed\xe3\xee\xe8\xed\xe3\xe8\\!_35_\xcb\xe5\xf2\xee_2024\\DreamCast\\\xc0\xf2\xf0\xe8 - \xcc\xee\xe8 \xe4\xee\xf0\xee\xe3\xe8\xe5 \xec\xee\xec\xe5\xed\xf2\xfb\\[DC] Atri - My Dear Moments - 03_Telegram.mp4" -lavfi "[0:v]settb=AVTB,setpts=PTS-STARTPTS,format=pix_fmts=yuv420p10,fps=24000/1001,scale=1920:1080:flags=bicubic[main];[1:v]settb=AVTB,setpts=PTS-STARTPTS,format=pix_fmts=yuv420p,fps=24000/1001,scale=1920:1080:flags=bicubic[ref];[main][ref]ssim=eof_action=endall:stats_file='D\\:/Convert/FFMetrics/logs/ssim_logfile-6.txt'" -f null -
Input #0, matroska,webm, from 'G:\Аниме\Онгоинги\!_35_Лето_2024\DreamCast\Атри - Мои дорогие моменты\[DC] Atri - My Dear Moments - 03_Telegram_HEVC.mkv':
  Metadata:
    COMPATIBLE_BRANDS: isomiso2avc1mp41
    MAJOR_BRAND     : isom
    MINOR_VERSION   : 512
    ENCODER         : Lavf61.7.100
  Duration: 00:23:46.65, start: -0.021000, bitrate: 1061 kb/s
  Stream #0:0: Video: hevc (Main 10), yuv420p10le(tv, bt709, progressive), 1920x1080 [SAR 1:1 DAR 16:9], 23.98 fps, 23.98 tbr, 1k tbn (default)
      Metadata:
        HANDLER_NAME    : VideoHandler
        VENDOR_ID       : [0][0][0][0]
        ENCODER         : Lavc61.19.100 libx265
        BPS             : 863981
        DURATION        : 00:23:46.549708333
        NUMBER_OF_FRAMES: 34203
        NUMBER_OF_BYTES : 154064062
        _STATISTICS_WRITING_APP: mkvpropedit v66.0.0 ('Josie') 64-bit
        _STATISTICS_WRITING_DATE_UTC: 2025-05-06 13:54:41
        _STATISTICS_TAGS: BPS DURATION NUMBER_OF_FRAMES NUMBER_OF_BYTES
  Stream #0:1: Audio: aac (LC), 48000 Hz, stereo, fltp (default)
      Metadata:
        HANDLER_NAME    : SoundHandler
        VENDOR_ID       : [0][0][0][0]
        ENCODER         : Lavc61.19.100 aac
        BPS             : 193518
        DURATION        : 00:23:46.645000000
        NUMBER_OF_FRAMES: 66875
        NUMBER_OF_BYTES : 34510315
        _STATISTICS_WRITING_APP: mkvpropedit v66.0.0 ('Josie') 64-bit
        _STATISTICS_WRITING_DATE_UTC: 2025-05-06 13:54:41
        _STATISTICS_TAGS: BPS DURATION NUMBER_OF_FRAMES NUMBER_OF_BYTES
Input #1, mov,mp4,m4a,3gp,3g2,mj2, from 'G:\Аниме\Онгоинги\!_35_Лето_2024\DreamCast\Атри - Мои дорогие моменты\[DC] Atri - My Dear Moments - 03_Telegram.mp4':
  Metadata:
    major_brand     : isom
    minor_version   : 512
    compatible_brands: isomiso2avc1mp41
    encoder         : Lavf61.1.100
  Duration: 00:23:46.62, start: 0.000000, bitrate: 3516 kb/s
  Stream #1:0[0x1](und): Video: h264 (High) (avc1 / 0x31637661), yuv420p(tv, bt709, progressive), 1920x1080 [SAR 1:1 DAR 16:9], 3368 kb/s, 23.98 fps, 23.98 tbr, 24k tbn (default)
      Metadata:
        handler_name    : VideoHandler
        vendor_id       : [0][0][0][0]
        encoder         : Lavc61.3.100 h264_qsv
  Stream #1:1[0x2](und): Audio: aac (HE-AACv2) (mp4a / 0x6134706D), 48000 Hz, stereo, fltp, 144 kb/s (default)
      Metadata:
        handler_name    : SoundHandler
        vendor_id       : [0][0][0][0]
Stream mapping:
  Stream #0:0 (hevc) -> settb:default
  Stream #1:0 (h264) -> settb:default
  ssim:default -> Stream #0:0 (wrapped_avframe)
  Stream #0:1 -> #0:1 (aac (native) -> pcm_s16le (native))
Output #0, null, to 'pipe:':
  Metadata:
    COMPATIBLE_BRANDS: isomiso2avc1mp41
    MAJOR_BRAND     : isom
    MINOR_VERSION   : 512
    encoder         : Lavf61.7.100
  Stream #0:0: Video: wrapped_avframe, yuv420p10le(tv, bt709, progressive), 1920x1080 [SAR 1:1 DAR 16:9], q=2-31, 200 kb/s, 23.98 fps, 23.98 tbn
      Metadata:
        encoder         : Lavc61.19.100 wrapped_avframe
  Stream #0:1: Audio: pcm_s16le, 48000 Hz, stereo, s16, 1536 kb/s (default)
      Metadata:
        HANDLER_NAME    : SoundHandler
        VENDOR_ID       : [0][0][0][0]
        _STATISTICS_TAGS: BPS DURATION NUMBER_OF_FRAMES NUMBER_OF_BYTES
        BPS             : 193518
        DURATION        : 00:23:46.645000000
        NUMBER_OF_FRAMES: 66875
        NUMBER_OF_BYTES : 34510315
        _STATISTICS_WRITING_APP: mkvpropedit v66.0.0 ('Josie') 64-bit
        _STATISTICS_WRITING_DATE_UTC: 2025-05-06 13:54:41
        encoder         : Lavc61.19.100 pcm_s16le
frame=  177 fps=0.0 q=-0.0 size=N/A time=00:00:07.38 bitrate=N/A speed=14.3x    frame=  441 fps=423 q=-0.0 size=N/A time=00:00:18.39 bitrate=N/A speed=17.7x    frame=  700 fps=451 q=-0.0 size=N/A time=00:00:29.19 bitrate=N/A speed=18.8x    frame=  969 fps=468 q=-0.0 size=N/A time=00:00:40.41 bitrate=N/A speed=19.5x    frame= 1234 fps=478 q=-0.0 size=N/A time=00:00:51.46 bitrate=N/A speed=19.9x    frame= 1498 fps=482 q=-0.0 size=N/A time=00:01:02.47 bitrate=N/A speed=20.1x    frame= 1758 fps=487 q=-0.0 size=N/A time=00:01:13.32 bitrate=N/A speed=20.3x    frame= 1994 fps=482 q=-0.0 size=N/A time=00:01:23.16 bitrate=N/A speed=20.1x    frame= 2218 fps=477 q=-0.0 size=N/A time=00:01:32.50 bitrate=N/A speed=19.9x    frame= 2444 fps=473 q=-0.0 size=N/A time=00:01:41.93 bitrate=N/A speed=19.7x    frame= 2657 fps=467 q=-0.0 size=N/A time=00:01:50.81 bitrate=N/A speed=19.5x    frame= 2858 fps=460 q=-0.0 size=N/A time=00:01:59.20 bitrate=N/A speed=19.2x    frame= 3078 fps=458 q=-0.0 size=N/A time=00:02:08.37 bitrate=N/A speed=19.1x    frame= 3300 fps=456 q=-0.0 size=N/A time=00:02:17.63 bitrate=N/A speed=  19x    frame= 3536 fps=456 q=-0.0 size=N/A time=00:02:27.48 bitrate=N/A speed=  19x    frame= 3759 fps=454 q=-0.0 size=N/A time=00:02:36.78 bitrate=N/A speed=  19x    frame= 3993 fps=455 q=-0.0 size=N/A time=00:02:46.54 bitrate=N/A speed=  19x    frame= 4209 fps=453 q=-0.0 size=N/A time=00:02:55.55 bitrate=N/A speed=18.9x    frame= 4483 fps=456 q=-0.0 size=N/A time=00:03:06.97 bitrate=N/A speed=  19x    frame= 4754 fps=460 q=-0.0 size=N/A time=00:03:18.28 bitrate=N/A speed=19.2x    frame= 5028 fps=463 q=-0.0 size=N/A time=00:03:29.70 bitrate=N/A speed=19.3x    frame= 5271 fps=464 q=-0.0 size=N/A time=00:03:39.84 bitrate=N/A speed=19.3x    frame= 5482 fps=462 q=-0.0 size=N/A time=00:03:48.64 bitrate=N/A speed=19.3x    frame= 5752 fps=464 q=-0.0 size=N/A time=00:03:59.90 bitrate=N/A speed=19.3x    frame= 5971 fps=463 q=-0.0 size=N/A time=00:04:09.04 bitrate=N/A speed=19.3x    frame= 6249 fps=465 q=-0.0 size=N/A time=00:04:20.63 bitrate=N/A speed=19.4x    frame= 6479 fps=465 q=-0.0 size=N/A time=00:04:30.22 bitrate=N/A speed=19.4x    frame= 6730 fps=465 q=-0.0 size=N/A time=00:04:40.69 bitrate=N/A speed=19.4x    frame= 6972 fps=466 q=-0.0 size=N/A time=00:04:50.79 bitrate=N/A speed=19.4x    frame= 7165 fps=463 q=-0.0 size=N/A time=00:04:58.84 bitrate=N/A speed=19.3x    frame= 7364 fps=460 q=-0.0 size=N/A time=00:05:07.14 bitrate=N/A speed=19.2x    frame= 7592 fps=459 q=-0.0 size=N/A time=00:05:16.64 bitrate=N/A speed=19.2x    frame= 7827 fps=459 q=-0.0 size=N/A time=00:05:26.45 bitrate=N/A speed=19.2x    frame= 8059 fps=459 q=-0.0 size=N/A time=00:05:36.12 bitrate=N/A speed=19.1x    frame= 8289 fps=459 q=-0.0 size=N/A time=00:05:45.72 bitrate=N/A speed=19.1x    frame= 8500 fps=457 q=-0.0 size=N/A time=00:05:54.52 bitrate=N/A speed=19.1x    frame= 8760 fps=458 q=-0.0 size=N/A time=00:06:05.36 bitrate=N/A speed=19.1x    frame= 9006 fps=459 q=-0.0 size=N/A time=00:06:15.62 bitrate=N/A speed=19.2x    frame= 9251 fps=459 q=-0.0 size=N/A time=00:06:25.84 bitrate=N/A speed=19.2x    frame= 9514 fps=461 q=-0.0 size=N/A time=00:06:36.81 bitrate=N/A speed=19.2x    frame= 9751 fps=461 q=-0.0 size=N/A time=00:06:46.69 bitrate=N/A speed=19.2x    frame=10004 fps=462 q=-0.0 size=N/A time=00:06:57.25 bitrate=N/A speed=19.3x    frame=10287 fps=464 q=-0.0 size=N/A time=00:07:09.05 bitrate=N/A speed=19.3x    frame=10547 fps=464 q=-0.0 size=N/A time=00:07:19.89 bitrate=N/A speed=19.4x    frame=10826 fps=466 q=-0.0 size=N/A time=00:07:31.53 bitrate=N/A speed=19.4x    frame=11120 fps=468 q=-0.0 size=N/A time=00:07:43.79 bitrate=N/A speed=19.5x    frame=11327 fps=467 q=-0.0 size=N/A time=00:07:52.43 bitrate=N/A speed=19.5x    frame=11563 fps=467 q=-0.0 size=N/A time=00:08:02.27 bitrate=N/A speed=19.5x    frame=11783 fps=466 q=-0.0 size=N/A time=00:08:11.44 bitrate=N/A speed=19.4x    frame=12001 fps=465 q=-0.0 size=N/A time=00:08:20.54 bitrate=N/A speed=19.4x    frame=12212 fps=464 q=-0.0 size=N/A time=00:08:29.34 bitrate=N/A speed=19.4x    frame=12434 fps=463 q=-0.0 size=N/A time=00:08:38.60 bitrate=N/A speed=19.3x    frame=12657 fps=463 q=-0.0 size=N/A time=00:08:47.90 bitrate=N/A speed=19.3x    frame=12902 fps=463 q=-0.0 size=N/A time=00:08:58.12 bitrate=N/A speed=19.3x    frame=13123 fps=462 q=-0.0 size=N/A time=00:09:07.33 bitrate=N/A speed=19.3x    frame=13336 fps=462 q=-0.0 size=N/A time=00:09:16.22 bitrate=N/A speed=19.2x    frame=13541 fps=460 q=-0.0 size=N/A time=00:09:24.77 bitrate=N/A speed=19.2x    frame=13773 fps=460 q=-0.0 size=N/A time=00:09:34.44 bitrate=N/A speed=19.2x    frame=14040 fps=461 q=-0.0 size=N/A time=00:09:45.58 bitrate=N/A speed=19.2x    frame=14289 fps=462 q=-0.0 size=N/A time=00:09:55.97 bitrate=N/A speed=19.3x    frame=14527 fps=461 q=-0.0 size=N/A time=00:10:05.89 bitrate=N/A speed=19.2x    frame=14765 fps=462 q=-0.0 size=N/A time=00:10:15.82 bitrate=N/A speed=19.3x    frame=15043 fps=463 q=-0.0 size=N/A time=00:10:27.41 bitrate=N/A speed=19.3x    frame=15314 fps=464 q=-0.0 size=N/A time=00:10:38.72 bitrate=N/A speed=19.3x    frame=15580 fps=464 q=-0.0 size=N/A time=00:10:49.81 bitrate=N/A speed=19.4x    frame=15840 fps=465 q=-0.0 size=N/A time=00:11:00.66 bitrate=N/A speed=19.4x    frame=16065 fps=465 q=-0.0 size=N/A time=00:11:10.04 bitrate=N/A speed=19.4x    frame=16270 fps=464 q=-0.0 size=N/A time=00:11:18.59 bitrate=N/A speed=19.3x    frame=16474 fps=463 q=-0.0 size=N/A time=00:11:27.10 bitrate=N/A speed=19.3x    frame=16659 fps=461 q=-0.0 size=N/A time=00:11:34.81 bitrate=N/A speed=19.2x    frame=16917 fps=462 q=-0.0 size=N/A time=00:11:45.57 bitrate=N/A speed=19.3x    frame=17173 fps=462 q=-0.0 size=N/A time=00:11:56.25 bitrate=N/A speed=19.3x    frame=17428 fps=463 q=-0.0 size=N/A time=00:12:06.89 bitrate=N/A speed=19.3x    frame=17689 fps=463 q=-0.0 size=N/A time=00:12:17.77 bitrate=N/A speed=19.3x    frame=17961 fps=464 q=-0.0 size=N/A time=00:12:29.12 bitrate=N/A speed=19.4x    frame=18197 fps=464 q=-0.0 size=N/A time=00:12:38.96 bitrate=N/A speed=19.4x    frame=18462 fps=465 q=-0.0 size=N/A time=00:12:50.01 bitrate=N/A speed=19.4x    frame=18717 fps=465 q=-0.0 size=N/A time=00:13:00.65 bitrate=N/A speed=19.4x    frame=18977 fps=466 q=-0.0 size=N/A time=00:13:11.49 bitrate=N/A speed=19.4x    frame=19238 fps=466 q=-0.0 size=N/A time=00:13:22.38 bitrate=N/A speed=19.4x    frame=19502 fps=467 q=-0.0 size=N/A time=00:13:33.39 bitrate=N/A speed=19.5x    frame=19758 fps=467 q=-0.0 size=N/A time=00:13:44.07 bitrate=N/A speed=19.5x    frame=20029 fps=468 q=-0.0 size=N/A time=00:13:55.37 bitrate=N/A speed=19.5x    frame=20279 fps=468 q=-0.0 size=N/A time=00:14:05.80 bitrate=N/A speed=19.5x    frame=20555 fps=468 q=-0.0 size=N/A time=00:14:17.31 bitrate=N/A speed=19.5x    frame=20810 fps=469 q=-0.0 size=N/A time=00:14:27.95 bitrate=N/A speed=19.6x    frame=21062 fps=469 q=-0.0 size=N/A time=00:14:38.46 bitrate=N/A speed=19.6x    frame=21293 fps=469 q=-0.0 size=N/A time=00:14:48.09 bitrate=N/A speed=19.6x    frame=21529 fps=469 q=-0.0 size=N/A time=00:14:57.93 bitrate=N/A speed=19.5x    frame=21765 fps=468 q=-0.0 size=N/A time=00:15:07.78 bitrate=N/A speed=19.5x    frame=22032 fps=469 q=-0.0 size=N/A time=00:15:18.91 bitrate=N/A speed=19.6x    frame=22290 fps=469 q=-0.0 size=N/A time=00:15:29.67 bitrate=N/A speed=19.6x    frame=22546 fps=470 q=-0.0 size=N/A time=00:15:40.35 bitrate=N/A speed=19.6x    frame=22792 fps=470 q=-0.0 size=N/A time=00:15:50.61 bitrate=N/A speed=19.6x    frame=23032 fps=470 q=-0.0 size=N/A time=00:16:00.62 bitrate=N/A speed=19.6x    frame=23263 fps=470 q=-0.0 size=N/A time=00:16:10.26 bitrate=N/A speed=19.6x    frame=23513 fps=470 q=-0.0 size=N/A time=00:16:20.68 bitrate=N/A speed=19.6x    frame=23775 fps=470 q=-0.0 size=N/A time=00:16:31.61 bitrate=N/A speed=19.6x    frame=24040 fps=470 q=-0.0 size=N/A time=00:16:42.66 bitrate=N/A speed=19.6x    frame=24306 fps=471 q=-0.0 size=N/A time=00:16:53.76 bitrate=N/A speed=19.6x    frame=24569 fps=471 q=-0.0 size=N/A time=00:17:04.73 bitrate=N/A speed=19.7x    frame=24846 fps=472 q=-0.0 size=N/A time=00:17:16.28 bitrate=N/A speed=19.7x    frame=25119 fps=473 q=-0.0 size=N/A time=00:17:27.67 bitrate=N/A speed=19.7x    frame=25377 fps=473 q=-0.0 size=N/A time=00:17:38.43 bitrate=N/A speed=19.7x    frame=25627 fps=473 q=-0.0 size=N/A time=00:17:48.85 bitrate=N/A speed=19.7x    frame=25860 fps=473 q=-0.0 size=N/A time=00:17:58.57 bitrate=N/A speed=19.7x    frame=26100 fps=473 q=-0.0 size=N/A time=00:18:08.58 bitrate=N/A speed=19.7x    frame=26384 fps=473 q=-0.0 size=N/A time=00:18:20.43 bitrate=N/A speed=19.7x    frame=26601 fps=473 q=-0.0 size=N/A time=00:18:29.48 bitrate=N/A speed=19.7x    frame=26859 fps=473 q=-0.0 size=N/A time=00:18:40.24 bitrate=N/A speed=19.7x    frame=27112 fps=473 q=-0.0 size=N/A time=00:18:50.79 bitrate=N/A speed=19.7x    frame=27337 fps=473 q=-0.0 size=N/A time=00:19:00.18 bitrate=N/A speed=19.7x    frame=27581 fps=473 q=-0.0 size=N/A time=00:19:10.35 bitrate=N/A speed=19.7x    frame=27832 fps=473 q=-0.0 size=N/A time=00:19:20.82 bitrate=N/A speed=19.7x    frame=28073 fps=473 q=-0.0 size=N/A time=00:19:30.87 bitrate=N/A speed=19.7x    frame=28347 fps=474 q=-0.0 size=N/A time=00:19:42.30 bitrate=N/A speed=19.8x    frame=28625 fps=474 q=-0.0 size=N/A time=00:19:53.90 bitrate=N/A speed=19.8x    frame=28866 fps=474 q=-0.0 size=N/A time=00:20:03.95 bitrate=N/A speed=19.8x    frame=29132 fps=474 q=-0.0 size=N/A time=00:20:15.04 bitrate=N/A speed=19.8x    frame=29378 fps=474 q=-0.0 size=N/A time=00:20:25.30 bitrate=N/A speed=19.8x    frame=29638 fps=475 q=-0.0 size=N/A time=00:20:36.15 bitrate=N/A speed=19.8x    frame=29914 fps=475 q=-0.0 size=N/A time=00:20:47.66 bitrate=N/A speed=19.8x    frame=30121 fps=475 q=-0.0 size=N/A time=00:20:56.29 bitrate=N/A speed=19.8x    frame=30358 fps=474 q=-0.0 size=N/A time=00:21:06.18 bitrate=N/A speed=19.8x    frame=30590 fps=474 q=-0.0 size=N/A time=00:21:15.85 bitrate=N/A speed=19.8x    frame=30842 fps=474 q=-0.0 size=N/A time=00:21:26.36 bitrate=N/A speed=19.8x    frame=31089 fps=474 q=-0.0 size=N/A time=00:21:36.67 bitrate=N/A speed=19.8x    frame=31333 fps=474 q=-0.0 size=N/A time=00:21:46.84 bitrate=N/A speed=19.8x    frame=31585 fps=474 q=-0.0 size=N/A time=00:21:57.35 bitrate=N/A speed=19.8x    frame=31835 fps=474 q=-0.0 size=N/A time=00:22:07.78 bitrate=N/A speed=19.8x    frame=32029 fps=474 q=-0.0 size=N/A time=00:22:15.87 bitrate=N/A speed=19.8x    frame=32262 fps=473 q=-0.0 size=N/A time=00:22:25.59 bitrate=N/A speed=19.7x    frame=32472 fps=473 q=-0.0 size=N/A time=00:22:34.35 bitrate=N/A speed=19.7x    frame=32650 fps=472 q=-0.0 size=N/A time=00:22:41.77 bitrate=N/A speed=19.7x    frame=32860 fps=472 q=-0.0 size=N/A time=00:22:50.53 bitrate=N/A speed=19.7x    frame=33052 fps=471 q=-0.0 size=N/A time=00:22:58.54 bitrate=N/A speed=19.6x    frame=33227 fps=470 q=-0.0 size=N/A time=00:23:05.84 bitrate=N/A speed=19.6x    frame=33415 fps=469 q=-0.0 size=N/A time=00:23:13.68 bitrate=N/A speed=19.6x    frame=33605 fps=468 q=-0.0 size=N/A time=00:23:21.60 bitrate=N/A speed=19.5x    frame=33782 fps=468 q=-0.0 size=N/A time=00:23:28.99 bitrate=N/A speed=19.5x    frame=34000 fps=467 q=-0.0 size=N/A time=00:23:38.08 bitrate=N/A speed=19.5x    [Parsed_ssim_10 @ 0000028fe8c1a340] SSIM Y:0.993473 (21.852737) U:0.991826 (20.875810) V:0.992156 (21.054719) All:0.992979 (21.535980)
[out#0/null @ 0000028fe7c545c0] video:14697KiB audio:267500KiB subtitle:0KiB other streams:0KiB global headers:0KiB muxing overhead: unknown
frame=34203 fps=467 q=-0.0 Lsize=N/A time=00:23:46.55 bitrate=N/A speed=19.5x    
